# xmcd
#
# Track frame offsets: 
#        150
#        13072
#        29186
#        44595
#        58708
#        72216
#        94197
#        114797
#        126829
#        138693
#        150259
#
# Disc length: 2175 seconds
#
# Revision: 0
# Processed by: cddbd v1.5.2PL0 Copyright (c) Steve Scherf et al.
# Submitted via: ExactAudioCopyFreeDBPlugin 1.0
#
DISCID=98087d0b
DTITLE=Various Artist - ICON R&B Christmas
DYEAR=2016
DGENRE=R&B
TTITLE0=Mary J. Blige - Someday At Christmas
TTITLE1=Brian McKnight (featuring Claude McKnight and Tim Miner) - The F
TTITLE1=irst Noel
TTITLE2=Toni Braxton and Babyface - Have Yourseolf A Merry Little Christ
TTITLE2=mas
TTITLE3=Patti LaBelle - It's The Most Wonderful Time Of The Year
TTITLE4=Ashanti - This Christmas
TTITLE5=Vanessa Williams and Bobby Caldwell - Baby, It's Cold Outside
TTITLE6=Faith Evans - Merry Christmas Baby
TTITLE7=The Isley Brothers (featuring Ronald Isley) - Winter Wonderlan
TTITLE7=d
TTITLE8=Ne-Yo and Tasha Cobbs - The Christmas Song
TTITLE9=Boyz II Men - Silent Night
TTITLE10=Aaron Neville - Please Come Home For Christmas
EXTD=
EXTT0=
EXTT1=
EXTT2=
EXTT3=
EXTT4=
EXTT5=
EXTT6=
EXTT7=
EXTT8=
EXTT9=
EXTT10=
PLAYORDER=
